<?xml version="1.0" standalone="no"?>
<!DOCTYPE svg PUBLIC "-//W3C//DTD SVG 20010904//EN"
 "http://www.w3.org/TR/2001/REC-SVG-20010904/DTD/svg10.dtd">
<svg version="1.0" xmlns="http://www.w3.org/2000/svg"
 width="876.000000pt" height="641.000000pt" viewBox="0 0 876.000000 641.000000"
 preserveAspectRatio="xMidYMid meet">

<g transform="translate(0.000000,641.000000) scale(0.100000,-0.100000)"
fill="#000000" stroke="none">
<path d="M0 3205 l0 -3205 4380 0 4380 0 0 3205 0 3205 -4380 0 -4380 0 0
-3205z m508 2734 c214 -416 579 -727 1152 -981 25 -11 57 -26 72 -34 14 -8 32
-14 38 -14 7 0 31 -8 54 -19 86 -39 117 -51 134 -51 9 0 26 -7 36 -15 11 -8
30 -15 42 -15 13 0 29 -6 37 -14 8 -8 32 -18 53 -22 21 -3 44 -10 49 -14 6 -4
26 -11 45 -15 19 -4 48 -13 65 -20 40 -16 90 -34 145 -50 452 -134 676 -267
721 -430 6 -19 14 -33 19 -30 5 3 12 -11 15 -32 4 -21 9 -46 12 -55 2 -10 0
-18 -5 -18 -18 0 -34 29 -27 50 4 11 2 20 -4 20 -6 0 -11 -13 -11 -28 0 -21
-10 -36 -37 -58 -20 -16 -44 -36 -52 -45 -9 -9 -35 -26 -58 -39 -24 -13 -43
-27 -43 -31 0 -4 -14 -10 -31 -14 -19 -4 -34 -16 -39 -31 -5 -13 -11 -24 -14
-24 -2 0 -34 37 -69 83 -87 111 -142 151 -353 258 -99 50 -195 99 -214 109
-19 11 -98 50 -175 89 -77 38 -194 96 -260 130 -66 33 -126 61 -132 61 -22 0
-15 -29 26 -111 85 -170 225 -332 416 -484 357 -284 442 -376 433 -468 -3 -29
-4 -30 -20 -13 -17 16 -19 16 -39 -3 -12 -11 -27 -17 -35 -14 -9 3 -14 -2 -14
-16 0 -12 4 -21 9 -21 5 0 7 -9 4 -20 -3 -11 -11 -20 -17 -20 -6 0 -52 41
-101 91 -78 79 -205 181 -367 294 -60 42 -217 137 -307 187 -42 23 -116 65
-166 93 -49 28 -97 54 -105 58 -80 37 -350 208 -446 282 -173 135 -311 312
-398 511 -52 118 -67 168 -96 314 -30 153 -32 182 -31 418 0 243 7 335 25 329
6 -2 35 -50 64 -108z m7747 57 c4 -30 5 -180 2 -333 -4 -233 -8 -293 -25 -368
-36 -155 -62 -237 -108 -334 -117 -249 -275 -420 -549 -596 -130 -83 -128 -82
-255 -153 -63 -35 -155 -88 -205 -116 -49 -29 -132 -76 -183 -105 -206 -117
-443 -289 -593 -430 -81 -77 -95 -86 -102 -66 -4 8 -1 12 6 9 18 -7 14 41 -6
60 -8 9 -27 16 -41 16 -32 0 -61 40 -52 73 7 31 135 167 210 224 248 190 474
403 549 519 52 81 129 232 125 245 -4 11 -74 -22 -564 -268 -230 -116 -427
-222 -463 -249 -35 -26 -90 -82 -124 -128 -42 -55 -67 -80 -79 -78 -9 2 -15 9
-12 16 3 9 -22 28 -70 55 -108 59 -186 147 -186 209 0 12 -4 24 -10 27 -11 7
19 72 56 122 53 71 181 151 329 208 39 14 86 33 105 40 19 8 87 30 150 50 63
20 130 43 148 51 18 8 40 14 48 14 9 0 28 6 42 14 33 16 125 46 143 46 8 0 28
7 44 16 17 9 44 20 60 24 35 10 256 94 300 115 17 7 37 16 45 19 8 3 22 10 30
14 8 5 85 43 171 86 275 137 476 275 648 446 146 144 283 331 342 465 24 53
50 94 61 95 4 0 10 -24 13 -54z m-7830 -1273 c26 -111 261 -354 483 -500 105
-70 285 -166 412 -222 216 -94 383 -187 558 -308 86 -61 115 -91 74 -80 -77
22 -394 80 -582 107 -30 4 -82 15 -115 23 -33 8 -94 23 -135 32 -413 92 -647
281 -738 595 -24 83 -24 326 1 363 21 32 32 29 42 -10z m7880 -15 c21 -73 20
-234 -4 -325 -81 -313 -331 -519 -736 -608 -44 -10 -103 -24 -131 -31 -27 -7
-174 -34 -325 -59 -151 -25 -296 -52 -323 -60 -27 -8 -61 -15 -75 -15 l-26 0
25 20 c37 30 239 164 290 193 138 79 238 129 365 183 178 75 378 190 517 295
168 128 378 370 378 436 0 44 29 25 45 -29z m-3929 -40 c8 -37 60 -140 106
-207 29 -43 29 -46 14 -72 -31 -52 -15 -98 41 -120 52 -20 97 21 98 90 0 46 2
49 67 104 37 32 78 72 92 89 14 18 27 30 30 28 2 -3 6 -62 7 -132 2 -127 2
-128 -24 -149 -43 -33 -34 -97 18 -125 31 -17 34 -17 65 2 20 11 38 32 44 51
16 49 30 44 37 -12 5 -42 2 -60 -22 -111 -33 -72 -47 -77 -154 -64 -93 12
-202 13 -190 1 6 -5 55 -20 110 -34 113 -29 218 -70 224 -88 5 -15 -288 -6
-495 16 -122 13 -153 13 -254 0 -63 -8 -176 -19 -250 -25 -74 -5 -156 -13
-182 -16 -37 -5 -48 -3 -48 8 0 26 25 46 70 56 138 32 294 79 298 90 4 14 -24
12 -207 -14 -99 -15 -105 -15 -121 3 -31 31 -213 294 -208 299 3 2 34 -9 69
-26 35 -16 81 -30 101 -30 35 0 38 -2 48 -40 18 -67 80 -89 124 -44 26 25 20
79 -11 103 -26 21 -26 22 -24 149 1 70 4 128 6 130 2 2 31 -25 64 -61 33 -35
76 -75 96 -88 32 -22 35 -28 35 -77 0 -48 2 -54 33 -72 41 -26 49 -25 86 6 23
19 31 34 31 59 0 19 -4 37 -10 40 -12 8 -13 52 -1 59 12 8 128 206 136 234 10
34 42 28 51 -10z m-1126 -633 c0 -14 -2 -25 -4 -25 -2 0 -6 11 -8 25 -3 14 -1
25 3 25 5 0 9 -11 9 -25z m-2914 -117 c88 -53 306 -158 330 -158 11 0 28 -7
38 -15 11 -8 27 -15 35 -15 9 -1 34 -9 56 -20 22 -11 47 -19 56 -20 14 0 61
-13 149 -42 19 -7 55 -15 80 -18 25 -4 65 -12 90 -18 143 -34 230 -52 256 -52
16 0 58 -6 94 -14 79 -18 163 -34 250 -47 36 -5 75 -14 88 -19 12 -6 62 -14
111 -20 91 -10 151 -26 151 -40 0 -8 -104 -42 -170 -55 -28 -6 -65 -25 -99
-52 -3 -2 2 -9 11 -16 8 -6 18 -21 22 -32 6 -15 4 -17 -5 -8 -16 16 -272 7
-493 -18 -110 -13 -238 -35 -332 -58 l-152 -38 -75 27 c-146 52 -252 134 -340
266 -25 39 -80 144 -121 234 -42 91 -88 191 -104 222 -42 84 -28 89 74 26z
m8104 27 c0 -8 -18 -52 -39 -97 -22 -46 -64 -136 -95 -201 -52 -112 -137 -251
-188 -309 -46 -53 -176 -135 -263 -167 l-85 -31 -88 26 c-203 59 -468 94 -719
95 -155 1 -173 5 -140 38 16 17 -22 46 -83 62 -39 10 -125 33 -169 45 -30 9
12 32 77 43 37 7 114 21 172 32 138 27 235 45 345 64 125 22 295 54 400 76 33
6 103 25 155 41 52 15 101 28 110 28 9 0 33 9 55 20 22 11 46 20 55 20 9 0 25
7 36 15 10 8 26 15 35 15 32 0 229 95 343 164 65 39 86 44 86 21z m-5527 -68
c2 -6 -1 -18 -8 -24 -10 -10 -14 -9 -19 3 -3 9 -6 20 -6 25 0 14 27 11 33 -4z
m1787 -97 c74 -5 185 -12 245 -15 61 -4 146 -13 190 -21 337 -64 364 -76 547
-257 73 -73 170 -179 216 -237 46 -58 96 -122 112 -142 17 -20 30 -41 30 -47
0 -22 -150 -73 -214 -73 -23 0 -70 5 -104 12 -61 11 -132 5 -132 -10 0 -10 26
-20 51 -20 33 0 119 -49 131 -75 14 -31 40 -32 102 -4 133 58 324 83 448 58
140 -28 372 -152 411 -219 11 -17 17 -33 15 -35 -2 -2 -28 14 -58 36 -70 50
-159 93 -237 113 -204 53 -360 14 -661 -164 -187 -111 -342 -160 -507 -160
-55 0 -118 5 -140 10 -175 43 -1469 43 -1615 0 -52 -15 -220 -12 -292 6 -141
35 -206 62 -376 160 -171 99 -269 140 -374 158 -176 29 -328 -9 -500 -126 -40
-26 -58 -34 -58 -24 0 65 229 198 418 242 111 26 253 15 382 -30 149 -53 155
-53 176 -21 19 30 102 75 137 75 23 0 47 16 47 32 0 11 -71 9 -160 -6 -84 -13
-159 -3 -244 34 -55 23 -56 22 32 139 171 229 397 453 502 499 64 27 231 63
385 83 264 33 820 48 1095 29z m1430 -200 c0 -13 -5 -18 -15 -14 -12 5 -13 10
-4 20 15 19 19 18 19 -6z m-3740 -229 c5 -11 10 -29 10 -41 0 -20 -3 -21 -32
-15 -51 13 -195 7 -283 -10 -112 -21 -127 -20 -123 7 2 18 12 25 43 30 22 4
83 17 135 27 52 11 127 20 167 20 62 1 74 -2 83 -18z m4170 -5 c36 -8 86 -18
113 -21 37 -5 47 -10 47 -25 0 -30 -15 -32 -113 -16 -167 27 -244 31 -273 11
-45 -29 -71 4 -43 57 10 19 17 20 108 15 53 -3 125 -12 161 -21z m-4325 -286
c32 -12 3 -18 -127 -25 -78 -4 -129 -11 -150 -22 -64 -32 -69 -34 -78 -28 -6
3 -17 2 -26 -3 -12 -7 1 -11 50 -16 60 -7 86 -21 54 -30 -65 -18 -260 -86
-328 -113 -186 -76 -302 -169 -361 -289 -33 -66 -33 -66 -68 -60 -37 6 -213
76 -291 116 -76 39 -157 109 -228 199 -133 166 -132 172 13 141 143 -29 238
-27 350 10 141 46 227 70 249 70 12 0 43 7 70 15 27 8 70 15 95 15 25 1 73 7
106 15 65 15 632 19 670 5z m4875 -4 c36 -9 88 -16 116 -16 28 0 69 -6 90 -14
22 -7 62 -16 91 -20 28 -3 64 -13 80 -21 15 -8 36 -15 45 -15 10 0 58 -13 108
-30 112 -37 216 -40 343 -10 84 20 117 19 117 -4 0 -19 -145 -196 -200 -244
-72 -63 -168 -116 -313 -172 -70 -28 -131 -50 -135 -50 -4 0 -18 25 -31 56
-50 114 -133 192 -300 278 -84 43 -196 86 -227 86 -20 0 -178 52 -189 62 -6 6
1 7 18 2 28 -7 77 11 77 28 0 4 -23 19 -52 33 -42 20 -72 26 -172 31 -67 3
-125 8 -130 11 -24 15 41 20 307 22 234 2 305 -1 357 -13z m-4671 -262 c183
-43 621 -301 621 -365 0 -26 -34 -32 -115 -19 -114 18 -346 92 -400 127 -11 7
-26 13 -34 13 -8 0 -23 8 -33 17 -14 13 -21 14 -30 5 -14 -14 17 -61 69 -105
62 -53 35 -63 -55 -20 -61 29 -139 101 -189 176 -42 61 -87 89 -119 75 -56
-26 -76 29 -21 57 51 27 148 53 196 54 25 1 74 -6 110 -15z m4053 -14 c31 -11
67 -30 80 -40 21 -17 22 -20 6 -36 -13 -13 -22 -15 -46 -6 -41 14 -78 -10
-135 -90 -25 -35 -60 -77 -79 -95 -40 -38 -143 -93 -177 -93 -22 0 -19 6 32
56 51 51 76 89 64 100 -2 2 -42 -14 -88 -35 -137 -64 -326 -122 -444 -135 -47
-6 -64 -4 -80 9 -19 15 -19 16 30 61 106 96 433 276 573 315 83 24 184 19 264
-11z m-4532 -310 c0 -52 5 -115 11 -140 27 -120 159 -175 568 -241 102 -16
201 -32 219 -36 42 -7 84 11 132 56 219 207 345 271 530 271 48 0 185 7 306
16 268 20 928 23 1149 6 83 -7 224 -15 315 -18 124 -4 179 -11 223 -25 31 -10
63 -19 71 -19 24 0 259 -177 311 -235 26 -29 89 -56 114 -49 31 8 33 9 146 23
252 32 384 60 497 106 133 53 178 133 178 317 l0 103 28 -28 27 -27 -2 -228
c-1 -170 -5 -243 -17 -288 -9 -33 -20 -114 -26 -180 -13 -150 -21 -207 -28
-199 -4 3 -5 25 -4 48 l2 42 -24 -30 c-14 -16 -29 -26 -33 -21 -4 4 -6 56 -3
114 7 176 6 270 -5 282 -8 7 -70 1 -205 -19 -107 -16 -217 -32 -245 -35 -90
-9 -259 -36 -289 -46 -16 -5 -65 -35 -110 -65 -122 -83 -164 -94 -390 -106
-214 -11 -627 -10 -726 1 l-65 7 75 2 c41 1 131 8 200 15 69 8 222 17 340 21
118 4 237 11 265 16 35 7 78 29 146 75 118 79 137 99 123 122 -16 25 -257 176
-312 195 -142 49 -2059 50 -2213 1 -39 -12 -227 -122 -306 -178 -33 -24 -18
-52 61 -110 125 -92 162 -106 327 -116 79 -5 200 -10 269 -10 71 0 155 -7 195
-15 38 -8 119 -16 180 -17 84 -1 61 -3 -95 -9 -231 -9 -647 -3 -759 12 -81 10
-172 53 -273 127 -59 43 -78 47 -343 77 -77 9 -167 21 -200 26 -135 24 -239
37 -251 32 -17 -6 -21 -93 -11 -262 4 -75 4 -138 -1 -143 -5 -5 -20 8 -35 29
-15 21 -27 32 -27 25 0 -7 -4 -11 -9 -8 -5 4 -12 45 -15 94 -11 144 -17 193
-25 187 -15 -9 -21 85 -21 310 0 213 1 223 22 250 20 26 22 26 29 9 4 -10 8
-62 9 -114z m160 57 c0 -33 43 -117 83 -163 20 -22 62 -54 94 -72 83 -44 316
-103 412 -104 l77 -1 84 57 c47 32 100 68 119 82 40 29 51 30 51 7 0 -25 -116
-132 -191 -175 -42 -25 -76 -38 -100 -38 -73 0 -427 83 -519 122 -63 27 -78
44 -112 118 -34 75 -46 147 -29 179 14 25 31 19 31 -12z m4480 -37 c0 -55 -26
-132 -61 -179 -40 -55 -93 -79 -295 -129 -205 -51 -293 -66 -337 -58 -73 14
-267 167 -267 211 0 21 12 19 48 -7 18 -13 70 -50 118 -83 l86 -60 77 2 c71 2
142 16 296 58 68 19 125 46 174 82 42 33 109 135 117 182 4 20 9 40 12 45 10
17 32 -28 32 -64z m-310 -88 c0 -16 -45 -50 -110 -83 -57 -29 -76 -33 -160
-36 -108 -4 -130 3 -113 40 10 22 18 24 120 30 74 4 130 14 178 30 84 29 85
29 85 19z m-3805 -23 c44 -11 122 -23 173 -26 93 -6 122 -17 122 -49 0 -20
-41 -27 -133 -22 -66 4 -94 11 -146 36 -67 34 -132 82 -109 82 7 0 49 -10 93
-21z m-305 -552 c0 -161 -16 -161 -26 0 -7 112 -3 149 16 138 6 -4 10 -60 10
-138z m4344 10 c-9 -171 -23 -181 -24 -16 0 75 3 139 6 142 19 18 23 -16 18
-126z m-104 3 c0 -79 -15 -94 -23 -23 -4 39 7 93 20 93 1 0 3 -31 3 -70z
m-4140 26 c0 -8 -4 -18 -10 -21 -5 -3 -10 3 -10 14 0 12 5 21 10 21 6 0 10 -6
10 -14z m2145 -56 c4 -7 -27 -10 -94 -10 -55 0 -102 4 -105 9 -3 5 39 9 93 10
60 1 102 -2 106 -9z m-1505 -106 c0 -8 -5 -12 -10 -9 -6 4 -8 11 -5 16 9 14
15 11 15 -7z m932 -2 c4 -4 -52 -6 -125 -6 -73 1 -233 -2 -357 -7 l-225 -8
-22 -28 c-13 -15 -58 -74 -102 -129 -83 -107 -137 -152 -211 -177 -59 -20 -83
-10 -32 13 44 20 117 102 188 213 26 40 62 88 80 107 l33 35 383 -3 c211 -2
386 -6 390 -10z m1928 -2 c7 -13 7 -20 1 -20 -6 0 -15 9 -21 20 -7 13 -7 20
-1 20 6 0 15 -9 21 -20z m-143 -22 c17 -18 57 -73 88 -123 71 -110 137 -181
184 -196 28 -10 31 -13 17 -21 -52 -29 -204 91 -317 252 -35 50 -66 90 -69 90
-3 0 -61 3 -130 7 -158 9 -556 9 -677 1 -51 -3 -93 -2 -93 3 0 12 80 14 545
17 l421 2 31 -32z m-1042 12 c12 -20 -577 -19 -599 1 -5 4 127 7 293 7 166 -1
304 -5 306 -8z m2112 -127 c-3 -10 -5 -4 -5 12 0 17 2 24 5 18 2 -7 2 -21 0
-30z m-4730 -5 c-3 -7 -5 -2 -5 12 0 14 2 19 5 13 2 -7 2 -19 0 -25z m101 -13
c-3 -3 -9 2 -12 12 -6 14 -5 15 5 6 7 -7 10 -15 7 -18z m4506 -40 c-7 -16 -24
-21 -24 -6 0 8 7 13 27 20 1 1 0 -6 -3 -14z m-3359 -45 c129 -23 225 -29 625
-41 612 -17 1419 3 1595 40 50 11 93 16 97 12 11 -10 -19 -49 -51 -66 -51 -26
-150 -34 -641 -51 -412 -14 -542 -14 -860 -4 -741 23 -772 26 -827 79 -25 24
-34 72 -10 53 7 -6 40 -16 72 -22z m3310 11 c-6 -5 -23 -13 -40 -16 -29 -7
-29 -7 -10 8 21 17 66 24 50 8z m-4355 -11 c0 -5 -7 -7 -15 -4 -8 4 -15 8 -15
10 0 2 7 4 15 4 8 0 15 -4 15 -10z m158 -39 c12 -7 3 -8 -28 -4 -65 8 -98 25
-37 18 27 -2 56 -9 65 -14z m-139 -106 c102 -52 820 -78 2156 -78 1340 0 1976
24 2135 80 58 20 83 13 78 -23 -4 -37 -57 -64 -128 -65 -30 0 -86 -6 -125 -13
-38 -7 -146 -13 -240 -14 -93 -2 -273 -7 -400 -13 -1091 -49 -3358 -12 -3527
59 -27 11 -46 51 -33 71 9 16 51 13 84 -4z m-814 -310 c77 -4 158 -10 181 -15
22 -5 57 -7 77 -3 24 4 37 2 37 -6 0 -6 9 -11 19 -11 11 0 55 -13 98 -29 157
-57 376 -109 653 -152 249 -39 495 -65 935 -98 186 -14 714 -31 945 -31 211 0
1025 27 1055 35 11 3 101 12 200 20 394 33 641 65 870 112 116 23 346 90 447
129 48 19 97 33 110 33 31 -2 301 10 363 17 189 18 204 17 205 -23 0 -42 -157
-152 -295 -206 -211 -82 -475 -140 -895 -197 -85 -11 -166 -22 -180 -25 -101
-19 -464 -48 -1080 -85 -286 -18 -1003 -24 -1280 -11 -566 26 -677 32 -925 52
-143 11 -309 27 -370 34 -60 8 -150 19 -200 25 -103 12 -264 36 -345 52 -30 5
-77 14 -105 18 -283 48 -605 158 -722 247 -35 27 -79 90 -69 100 19 19 56 30
91 27 22 -2 103 -6 180 -9z"/>
<path d="M750 5263 c0 -32 45 -149 83 -218 130 -232 367 -457 606 -577 52 -27
101 -48 108 -48 15 0 17 12 4 25 -5 6 -28 67 -51 137 -33 101 -48 133 -71 153
-17 14 -110 78 -206 142 -204 137 -320 234 -395 332 -52 69 -78 87 -78 54z"/>
<path d="M7881 5242 c-64 -100 -200 -215 -461 -390 -91 -60 -173 -118 -182
-128 -18 -21 -47 -93 -55 -139 -3 -16 -10 -35 -14 -41 -13 -16 -41 -115 -35
-121 7 -8 196 90 258 133 177 125 359 319 449 479 69 123 110 255 80 255 -5 0
-23 -22 -40 -48z"/>
<path d="M3840 3690 c-298 -16 -487 -50 -599 -111 -132 -71 -275 -193 -375
-319 -106 -134 -114 -163 -51 -193 37 -18 64 -16 275 18 47 8 132 19 190 25
57 6 107 13 110 15 4 2 118 12 256 22 173 12 372 17 654 18 574 0 825 -16
1364 -90 149 -20 173 -21 202 -9 55 23 54 52 -2 131 -148 210 -399 402 -574
440 -194 42 -365 54 -830 58 -250 2 -529 0 -620 -5z m167 -77 c2 -6 -26 -40
-64 -75 -241 -225 -270 -260 -243 -293 7 -8 21 -15 31 -15 23 0 25 -16 3 -24
-9 -3 -43 -6 -77 -6 -89 0 -491 -44 -642 -70 -27 -4 -51 -7 -53 -5 -11 11 33
56 146 149 70 58 181 151 247 206 70 58 135 104 155 110 40 11 383 39 449 37
25 -1 46 -7 48 -14z m635 6 c25 -16 -26 -46 -122 -73 -143 -41 -224 -81 -255
-128 -30 -45 -58 -58 -121 -58 -49 0 -120 -31 -214 -94 -53 -35 -80 -45 -80
-28 0 4 39 52 88 108 48 55 115 134 150 176 60 73 87 92 142 101 43 8 399 4
412 -4z m321 -236 c-7 -2 -21 -2 -30 0 -10 3 -4 5 12 5 17 0 24 -2 18 -5z"/>
<path d="M3830 3094 c0 -4 13 -28 28 -53 15 -25 36 -63 46 -84 24 -52 60 -202
53 -220 -7 -20 -177 -30 -512 -31 -235 -1 -255 0 -333 23 -46 13 -86 20 -90
17 -25 -26 89 -81 234 -112 78 -17 134 -19 444 -20 195 0 412 2 483 4 l127 5
0 51 c0 28 -5 94 -11 146 -6 52 -13 136 -17 185 l-7 90 -108 3 c-81 2 -108 -1
-111 -10 -3 -7 -7 -89 -10 -182 -3 -92 -8 -171 -11 -174 -10 -10 -25 21 -25
52 0 41 -27 189 -47 259 l-17 57 -58 0 c-32 0 -58 -3 -58 -6z"/>
<path d="M4397 2988 c-3 -62 -11 -166 -17 -232 -8 -78 -9 -121 -2 -128 14 -14
811 -21 927 -8 116 12 205 32 279 62 97 39 107 85 12 55 -120 -38 -284 -45
-656 -26 -118 5 -216 12 -218 14 -5 5 18 125 35 180 9 28 33 77 55 111 21 34
38 66 38 73 0 7 -22 11 -60 11 -57 0 -60 -1 -66 -27 -3 -16 -8 -35 -11 -43 -5
-14 -23 -114 -42 -237 -8 -54 -16 -71 -28 -60 -3 4 -8 88 -11 187 l-5 180
-112 0 -112 0 -6 -112z"/>
<path d="M3110 3020 c-12 -8 -10 -10 10 -10 14 0 32 5 40 10 12 8 10 10 -10
10 -14 0 -32 -5 -40 -10z"/>
<path d="M5510 3020 c0 -5 14 -10 30 -10 17 0 30 5 30 10 0 6 -13 10 -30 10
-16 0 -30 -4 -30 -10z"/>
</g>
</svg>
